<svg data-v-423bf9ae="" xmlns="http://www.w3.org/2000/svg" width="200" height="31" viewBox="0 0 497 90" class="iconLeft"><!----><!----><!----><g data-v-423bf9ae="" id="c298f52b-58c3-4926-85e9-5f733f8e50c5" fill="#242E31" transform="matrix(6.036217558641619,0,0,6.036217558641619,181.3344693284573,-7.394367849660995)"><path d="M1.12 13.51L1.12 3.71L2.45 3.71L2.45 12.31L6.94 12.31L6.94 13.51L1.12 13.51ZM11.16 13.65L11.16 13.65Q9.98 13.65 9.15 13.17L9.15 13.17L9.15 13.17Q8.32 12.68 7.88 11.86L7.88 11.86L7.88 11.86Q7.45 11.03 7.45 10.02L7.45 10.02L7.45 10.02Q7.45 9.06 7.85 8.25L7.85 8.25L7.85 8.25Q8.25 7.45 9.01 6.98L9.01 6.98L9.01 6.98Q9.77 6.51 10.81 6.51L10.81 6.51L10.81 6.51Q12.12 6.51 12.94 7.28L12.94 7.28L12.94 7.28Q13.76 8.05 13.76 9.41L13.76 9.41L13.76 9.41Q13.76 9.76 13.71 10.08L13.71 10.08L8.74 10.08L8.74 10.08Q8.86 11.41 9.55 11.97L9.55 11.97L9.55 11.97Q10.23 12.53 11.31 12.53L11.31 12.53L11.31 12.53Q12.39 12.53 13.29 12.12L13.29 12.12L13.45 13.12L13.45 13.12Q12.26 13.65 11.16 13.65L11.16 13.65ZM8.85 9.21L12.46 9.21L12.46 9.21Q12.46 8.47 12.04 8.05L12.04 8.05L12.04 8.05Q11.62 7.63 10.78 7.63L10.78 7.63L10.78 7.63Q9.97 7.63 9.51 8.03L9.51 8.03L9.51 8.03Q9.04 8.43 8.85 9.21L8.85 9.21ZM17.40 13.65L17.40 13.65Q16.49 13.65 16.05 13.17L16.05 13.17L16.05 13.17Q15.61 12.70 15.61 12.01L15.61 12.01L15.61 7.63L14.43 7.63L14.55 6.65L15.61 6.65L15.61 4.96L16.87 4.83L16.87 6.65L18.68 6.65L18.68 7.63L16.87 7.63L16.87 11.24L16.87 11.24Q16.87 11.96 16.95 12.22L16.95 12.22L16.95 12.22Q17.04 12.49 17.31 12.56L17.31 12.56L17.31 12.56Q17.58 12.64 18.31 12.64L18.31 12.64L18.63 12.64L18.54 13.65L17.40 13.65ZM22.12 13.65L22.12 13.65Q21.21 13.65 20.77 13.17L20.77 13.17L20.77 13.17Q20.33 12.70 20.33 12.01L20.33 12.01L20.33 7.63L19.15 7.63L19.26 6.65L20.33 6.65L20.33 4.96L21.59 4.83L21.59 6.65L23.39 6.65L23.39 7.63L21.59 7.63L21.59 11.24L21.59 11.24Q21.59 11.96 21.67 12.22L21.67 12.22L21.67 12.22Q21.76 12.49 22.03 12.56L22.03 12.56L22.03 12.56Q22.30 12.64 23.03 12.64L23.03 12.64L23.35 12.64L23.25 13.65L22.12 13.65ZM27.76 13.65L27.76 13.65Q26.59 13.65 25.75 13.17L25.75 13.17L25.75 13.17Q24.92 12.68 24.49 11.86L24.49 11.86L24.49 11.86Q24.05 11.03 24.05 10.02L24.05 10.02L24.05 10.02Q24.05 9.06 24.45 8.25L24.45 8.25L24.45 8.25Q24.85 7.45 25.61 6.98L25.61 6.98L25.61 6.98Q26.38 6.51 27.41 6.51L27.41 6.51L27.41 6.51Q28.73 6.51 29.55 7.28L29.55 7.28L29.55 7.28Q30.37 8.05 30.37 9.41L30.37 9.41L30.37 9.41Q30.37 9.76 30.31 10.08L30.31 10.08L25.34 10.08L25.34 10.08Q25.47 11.41 26.15 11.97L26.15 11.97L26.15 11.97Q26.84 12.53 27.92 12.53L27.92 12.53L27.92 12.53Q28.99 12.53 29.89 12.12L29.89 12.12L30.06 13.12L30.06 13.12Q28.87 13.65 27.76 13.65L27.76 13.65ZM25.45 9.21L29.06 9.21L29.06 9.21Q29.06 8.47 28.64 8.05L28.64 8.05L28.64 8.05Q28.22 7.63 27.38 7.63L27.38 7.63L27.38 7.63Q26.57 7.63 26.11 8.03L26.11 8.03L26.11 8.03Q25.65 8.43 25.45 9.21L25.45 9.21ZM31.64 13.51L31.64 6.65L32.68 6.65L32.83 7.78L32.83 7.78Q33.36 7.13 33.84 6.82L33.84 6.82L33.84 6.82Q34.33 6.51 34.86 6.51L34.86 6.51L34.86 6.51Q35.03 6.51 35.18 6.55L35.18 6.55L35.06 7.94L35.06 7.94Q34.87 7.90 34.64 7.90L34.64 7.90L34.64 7.90Q34.12 7.90 33.66 8.13L33.66 8.13L33.66 8.13Q33.19 8.36 32.98 8.67L32.98 8.67L32.98 13.51L31.64 13.51ZM42.29 3.71L43.69 3.71L40.18 13.51L38.78 13.51L35.27 3.71L36.67 3.71L39.48 11.65L42.29 3.71ZM44.60 5.11L44.60 3.71L45.86 3.71L45.86 5.11L44.60 5.11ZM44.60 13.51L44.60 6.65L45.86 6.65L45.86 13.51L44.60 13.51ZM49.52 13.65L49.52 13.65Q48.71 13.65 48.10 13.46L48.10 13.46L48.10 13.46Q47.49 13.27 47.17 13.05L47.17 13.05L47.32 11.83L47.32 11.83Q47.60 12.08 48.18 12.31L48.18 12.31L48.18 12.31Q48.76 12.53 49.46 12.53L49.46 12.53L49.46 12.53Q50.12 12.53 50.48 12.31L50.48 12.31L50.48 12.31Q50.83 12.08 50.83 11.68L50.83 11.68L50.83 11.68Q50.83 11.20 50.44 10.96L50.44 10.96L50.44 10.96Q50.05 10.71 49.46 10.54L49.46 10.54L49.46 10.54Q48.82 10.37 48.38 10.18L48.38 10.18L48.38 10.18Q47.94 10.00 47.62 9.60L47.62 9.60L47.62 9.60Q47.31 9.21 47.31 8.57L47.31 8.57L47.31 8.57Q47.31 7.69 47.94 7.10L47.94 7.10L47.94 7.10Q48.57 6.51 49.88 6.51L49.88 6.51L49.88 6.51Q50.48 6.51 50.90 6.63L50.90 6.63L50.90 6.63Q51.32 6.75 51.74 6.96L51.74 6.96L51.59 8.11L51.59 8.11Q51.25 7.83 50.85 7.67L50.85 7.67L50.85 7.67Q50.44 7.50 49.91 7.50L49.91 7.50L49.91 7.50Q49.29 7.50 48.94 7.73L48.94 7.73L48.94 7.73Q48.58 7.97 48.58 8.43L48.58 8.43L48.58 8.43Q48.58 8.74 48.75 8.93L48.75 8.93L48.75 8.93Q48.92 9.11 49.22 9.24L49.22 9.24L49.22 9.24Q49.53 9.37 50.18 9.56L50.18 9.56L50.18 9.56Q50.97 9.80 51.56 10.23L51.56 10.23L51.56 10.23Q52.14 10.67 52.14 11.61L52.14 11.61L52.14 11.61Q52.14 12.45 51.54 13.05L51.54 13.05L51.54 13.05Q50.95 13.65 49.52 13.65L49.52 13.65Z"></path></g><defs data-v-423bf9ae=""><linearGradient data-v-423bf9ae="" gradientTransform="rotate(25)" id="23cc5f3e-360d-4c66-9173-a754d7f74c96" x1="0%" y1="0%" x2="100%" y2="0%"><stop data-v-423bf9ae="" offset="0%" style="stop-color: rgb(39, 109, 142); stop-opacity: 1;"></stop><stop data-v-423bf9ae="" offset="100%" style="stop-color: rgb(221, 223, 212); stop-opacity: 1;"></stop></linearGradient></defs><g data-v-423bf9ae="" id="b24ff736-ef79-4d3c-ba05-70927110b375" transform="matrix(1.7044395766729281,0,0,1.7044395766729281,-0.5333065903903389,-39.624066194751435)" stroke="none" fill="url(#23cc5f3e-360d-4c66-9173-a754d7f74c96)"><path d="M97.066 49.294H84.667c-.919 0-1.745.56-2.085 1.412l-1.541 3.857-8.542-21.378a2.243 2.243 0 0 0-4.169 0l-6.436 16.109H53.06c2.014-5.625 2.044-11.745-.042-16.634-1.81-4.24-4.981-7.124-9.169-8.34-1.649-.478-3.265-.721-4.804-.721-5.719 0-9.354 3.237-11.41 5.988-2.057-2.751-5.691-5.988-11.411-5.988-1.539 0-3.155.243-4.804.722-4.188 1.215-7.358 4.1-9.168 8.339C-.249 38.521.281 46.153 3.638 52.579c5.525 10.572 21.96 22.861 22.657 23.38a2.244 2.244 0 0 0 2.678 0c.671-.499 15.909-11.895 21.982-22.175h12.46c.918 0 1.744-.56 2.085-1.412l4.915-12.303 8.542 21.379a2.245 2.245 0 0 0 4.17 0l3.061-7.664h10.879a2.245 2.245 0 0 0-.001-4.49zM27.634 71.325C23.635 68.192 11.806 58.516 7.617 50.5 4.91 45.316 4.425 39.006 6.381 34.422c.881-2.064 2.688-4.744 6.291-5.791 1.242-.36 2.437-.543 3.552-.543 6.129 0 8.861 5.655 9.347 6.789a2.247 2.247 0 0 0 4.128 0c.485-1.134 3.217-6.789 9.346-6.789 1.115 0 2.31.183 3.551.543 3.604 1.047 5.411 3.727 6.291 5.791 1.958 4.583 1.472 10.894-1.235 16.077-4.19 8.017-16.019 17.693-20.018 20.826z"></path></g><!----></svg>